<?xml version="1.0" encoding="UTF-8" standalone="no"?>
<!DOCTYPE svg PUBLIC "-//W3C//DTD SVG 1.1//EN" "http://www.w3.org/Graphics/SVG/1.1/DTD/svg11.dtd">
<svg version="1.1" xmlns="http://www.w3.org/2000/svg" xmlns:xlink="http://www.w3.org/1999/xlink" preserveAspectRatio="xMidYMid meet" viewBox="0 0 400 400" width="400" height="400"><defs><path d="M400 200C400 310.38 310.38 400 200 400C89.62 400 0 310.38 0 200C0 89.62 89.62 0 200 0C310.38 0 400 89.62 400 200Z" id="btUJlVHNt"></path><clipPath id="clipchIHKfnjJ"><use xlink:href="#btUJlVHNt" opacity="1"></use></clipPath><path d="M130.34 200C130.34 222.82 111.81 241.35 88.98 241.35C66.16 241.35 47.63 222.82 47.63 200C47.63 177.18 66.16 158.65 88.98 158.65C111.81 158.65 130.34 177.18 130.34 200Z" id="e8xpkLg6y"></path><path d="M241.35 200C241.35 222.82 222.82 241.35 200 241.35C177.18 241.35 158.65 222.82 158.65 200C158.65 177.18 177.18 158.65 200 158.65C222.82 158.65 241.35 177.18 241.35 200Z" id="c6TxvnyGbh"></path><path d="M358.18 200C358.18 222.82 339.64 241.35 316.82 241.35C294 241.35 275.47 222.82 275.47 200C275.47 177.18 294 158.65 316.82 158.65C339.64 158.65 358.18 177.18 358.18 200Z" id="b2PuKJ0gv"></path></defs><g><g><g><use xlink:href="#btUJlVHNt" opacity="1" fill="#ffffff" fill-opacity="1"></use><g clip-path="url(#clipchIHKfnjJ)"><use xlink:href="#btUJlVHNt" opacity="1" fill-opacity="0" stroke="#132fd2" stroke-width="60" stroke-opacity="1"></use></g></g><g><use xlink:href="#e8xpkLg6y" opacity="1" fill="#132fd2" fill-opacity="1"></use></g><g><use xlink:href="#c6TxvnyGbh" opacity="1" fill="#132fd2" fill-opacity="1"></use></g><g><use xlink:href="#b2PuKJ0gv" opacity="1" fill="#132fd2" fill-opacity="1"></use></g></g></g></svg>